
	<svg xmlns="http://www.w3.org/2000/svg" xmlns:xlink="http://www.w3.org/1999/xlink" version="1.1" width="512" height="512" viewBox="0 0 100 100">


		<defs>
			<g id="background">
<path fill="url(#background-gradient)" stroke="none" d=" M 85.35 85.35 Q 100 70.6 100 50 100 29.3 85.35 14.65 70.7 0 50 0 29.3 0 14.65 14.65 0 29.3 0 50 0 70.6 14.65 85.35 29.3 100 50 100 70.7 100 85.35 85.35 Z"/>
</g><g id="middle-1">
<path fill="#000000" fill-opacity="0.10196078431372549" stroke="none" d=" M 0 50 Q 0 70.7 14.75 85.4 29.3 100 50 100 61 100 71.15 95.25 L 0.1 47.95 0 50 M 98 63.8 L 99.2 59.1 22.6 8.15 18.6 11.05 98 63.8 Z"/>
</g><mask id="mask">
<path fill="#FFFFFF" stroke="none" d=" M 85.35 85.35 Q 100 70.6 100 50 100 29.3 85.35 14.65 70.7 0 50 0 29.3 0 14.65 14.65 0 29.3 0 50 0 70.6 14.65 85.35 29.3 100 50 100 70.7 100 85.35 85.35 Z"/>
</mask>
			
	<linearGradient id="background-gradient" x1="0" y1="0" y2="1" x2="0" >
		<stop stop-color="#2563EB" offset="0%"/>
		<stop stop-color="#070c19" offset="100%"/>
	</linearGradient>

			
			
			<g transform="scale(3.3333333333333335)" id="picture"><path d="M29.5 21H.5c-.3 0-.5-.2-.5-.5s.2-.5.5-.5h29c.3 0 .5.2.5.5s-.2.5-.5.5zm-17 2h-5c-.3 0-.5-.2-.5-.5s.2-.5.5-.5h5c.3 0 .5.2.5.5s-.2.5-.5.5zm10 1h-5c-.3 0-.5-.2-.5-.5s.2-.5.5-.5h5c.3 0 .5.2.5.5s-.2.5-.5.5zm-7 2h-4c-.3 0-.5-.2-.5-.5s.2-.5.5-.5h4c.3 0 .5.2.5.5s-.2.5-.5.5zm-11-3c-.3 0-.5-.2-.5-.5s.2-.5.5-.5.5.2.5.5-.2.5-.5.5zm10 1c-.3 0-.5-.2-.5-.5s.2-.5.5-.5.5.2.5.5-.2.5-.5.5zm4 2c-.3 0-.5-.2-.5-.5s.2-.5.5-.5.5.2.5.5-.2.5-.5.5zm-10 0c-.3 0-.5-.2-.5-.5s.2-.5.5-.5.5.2.5.5-.2.5-.5.5zm3 2c-.3 0-.5-.2-.5-.5s.2-.5.5-.5.5.2.5.5-.2.5-.5.5zm3 0c-.3 0-.5-.2-.5-.5s.2-.5.5-.5.5.2.5.5-.2.5-.5.5zm3 0c-.3 0-.5-.2-.5-.5s.2-.5.5-.5.5.2.5.5-.2.5-.5.5zm9-21c-.3 0-.5-.2-.5-.5 0-.1-.5-.5-1.9-.5H24c-.3 0-.5-.2-.5-.5s.2-.5.5-.5h.1c1.3 0 2 .3 2.4.6.4-.3 1.2-.6 2.5-.6.3 0 .5.2.5.5s-.2.5-.5.5c-1.5 0-2 .4-2 .6 0 .2-.2.4-.5.4zm-13-2c-.3 0-.5-.2-.5-.5v-2c0-.3.2-.5.5-.5s.5.2.5.5v2c0 .3-.2.5-.5.5zm-4 1.1c-.2 0-.3-.1-.4-.3l-1-1.7c-.2-.2-.1-.6.2-.7.2-.1.5-.1.7.2l1 1.7c.1.3 0 .6-.2.7-.1.1-.2.1-.3.1zM6.6 9c-.1 0-.2 0-.3-.1l-1.7-1c-.2-.1-.3-.4-.2-.6s.4-.3.7-.2l1.7 1c.3.1.3.4.2.7-.1.1-.3.2-.4.2zm15.6 9c-.1 0-.2 0-.3-.1l-1.7-1c-.2-.1-.3-.4-.2-.7s.4-.3.7-.2l1.7 1c.2.1.3.4.2.7-.1.2-.3.3-.4.3zM5.5 13h-2c-.3 0-.5-.2-.5-.5s.2-.5.5-.5h2c.3 0 .5.2.5.5s-.2.5-.5.5zm18 0h-2c-.3 0-.5-.2-.5-.5s.2-.5.5-.5h2c.3 0 .5.2.5.5s-.2.5-.5.5zM4.8 18c-.2 0-.3-.1-.4-.3-.1-.2-.1-.5.2-.7l1.7-1c.3-.1.6 0 .7.3.1.2.1.5-.2.7l-1.7 1h-.3zm15.6-9c-.2 0-.3-.1-.4-.3-.1-.2-.1-.5.2-.7l1.7-1c.2-.1.5-.1.7.2.1.2.1.5-.2.7l-1.7 1c-.1.1-.2.1-.3.1zm-2.9-2.9c-.1 0-.2 0-.3-.1-.2-.1-.3-.4-.2-.7l1-1.7c.1-.2.4-.3.7-.2.2.1.3.4.2.7l-1 1.7c-.1.2-.2.3-.4.3zm-4 11.9c-3 0-5.5-2.5-5.5-5.5S10.5 7 13.5 7 19 9.5 19 12.5 16.5 18 13.5 18zm0-10C11 8 9 10 9 12.5s2 4.5 4.5 4.5 4.5-2 4.5-4.5S16 8 13.5 8z"/></g>
			
	<linearGradient id="picture-gradient" x1="0" y1="0" y2="1" x2="0" >
		<stop stop-color="#ffffff" offset="0%"/>
		<stop stop-color="#e5eff9" offset="100%"/>
	</linearGradient>

		</defs>

		

			<use xlink:href="#background" fill="url(#background-gradient)" />

		<use xlink:href="#middle-1" />

			<g mask="url(#mask)">
				<g transform="
				        translate(
                                50 50
)
                            translate(0 0)  scale(0.5)  
                            translate(
                                -50 -50
)">
						<use xlink:href="#picture" fill="url(#picture-gradient)"  />
				</g>
			</g>

		



	</svg>
